2-Regular bis full linea y + signos.ufo
<glyph name="H" format="2">
	<advance width="655"/>
	<unicode hex="0048"/>
	<outline>
		<contour>
			<point x="582" y="0" type="move"/>
			<point x="582" y="759" type="line"/>
			<point x="554" y="759" type="line"/>
			<point x="554" y="3" type="line"/>
			<point x="526" y="3" type="line"/>
			<point x="526" y="20"/>
			<point x="526" y="614"/>
			<point x="526" y="760" type="curve"/>
			<point x="498" y="760" type="line"/>
			<point x="498" y="412" type="line"/>
			<point x="157" y="412" type="line"/>
			<point x="157" y="0" type="line"/>
			<point x="129" y="0" type="line"/>
			<point x="129" y="760" type="line"/>
			<point x="101" y="760" type="line"/>
			<point x="101" y="0" type="line"/>
			<point x="73" y="0" type="line"/>
			<point x="73" y="760" type="line"/>
		</contour>
	</outline>
</glyph>
<glyph name="a" format="2">
	<advance width="539"/>
	<unicode hex="0061"/>
	<outline>
		<contour>
			<point x="478" y="440" type="move"/>
			<point x="478" y="0" type="line"/>
			<point x="450" y="0" type="line"/>
			<point x="450" y="440" type="line"/>
			<point x="422" y="440" type="line"/>
			<point x="422" y="63" type="line"/>
			<point x="387" y="30"/>
			<point x="332" y="-18"/>
			<point x="268" y="-18" type="curve" smooth="yes"/>
			<point x="164" y="-18"/>
			<point x="136" y="45"/>
			<point x="134" y="127" type="curve" smooth="yes"/>
			<point x="132" y="222" type="line"/>
			<point x="104" y="222" type="line"/>
			<point x="104" y="49" type="line"/>
			<point x="76" y="49" type="line"/>
			<point x="76" y="221" type="line"/>
			<point x="48" y="221" type="line"/>
			<point x="48" y="46" type="line"/>
		</contour>
		<contour>
			<point x="50" y="478" type="move"/>
			<point x="50" y="399" type="line"/>
			<point x="78" y="399" type="line"/>
			<point x="78" y="478" type="line"/>
			<point x="106" y="478" type="line"/>
			<point x="106" y="399" type="line"/>
			<point x="134" y="399" type="line"/>
			<point x="134" y="484" type="line"/>
			<point x="152" y="494"/>
			<point x="197" y="518"/>
			<point x="261" y="518" type="curve" smooth="yes"/>
			<point x="331" y="518"/>
			<point x="394" y="478"/>
			<point x="394" y="353" type="curve"/>
			<point x="394" y="221" type="line"/>
			<point x="157" y="221" type="line"/>
		</contour>
	</outline>
</glyph>
<glyph name="b" format="2">
	<advance width="539"/>
	<unicode hex="0062"/>
	<guideline x="522" y="389" angle="0"/>
	<outline>
		<contour>
			<point x="139" y="111" type="move"/>
			<point x="111" y="111" type="line"/>
			<point x="111" y="760" type="line"/>
			<point x="83" y="760" type="line"/>
			<point x="83" y="112" type="line"/>
			<point x="55" y="112" type="line"/>
			<point x="55" y="760" type="line"/>
		</contour>
		<contour>
			<point x="411" y="389" type="move"/>
			<point x="439" y="389" type="line"/>
			<point x="439" y="110" type="line"/>
			<point x="467" y="110" type="line"/>
			<point x="467" y="388" type="line"/>
			<point x="495" y="388" type="line"/>
			<point x="495" y="107" type="line"/>
		</contour>
		<contour>
			<point x="139" y="367" type="move"/>
			<point x="139" y="456"/>
			<point x="178" y="514"/>
			<point x="275" y="512" type="curve" smooth="yes"/>
			<point x="372" y="514"/>
			<point x="411" y="456"/>
			<point x="411" y="367" type="curve" smooth="yes"/>
			<point x="411" y="133" type="line" smooth="yes"/>
			<point x="411" y="44"/>
			<point x="372" y="-14"/>
			<point x="275" y="-12" type="curve" smooth="yes"/>
			<point x="178" y="-14"/>
			<point x="139" y="44"/>
			<point x="139" y="133" type="curve" smooth="yes"/>
			<point x="139" y="367" type="line"/>
		</contour>
	</outline>
</glyph>
<glyph name="d" format="2">
	<advance width="539"/>
	<unicode hex="0064"/>
	<outline>
		<contour>
			<point x="400" y="111" type="move"/>
			<point x="428" y="111" type="line"/>
			<point x="428" y="760" type="line"/>
			<point x="456" y="760" type="line"/>
			<point x="456" y="112" type="line"/>
			<point x="484" y="112" type="line"/>
			<point x="484" y="760" type="line"/>
		</contour>
		<contour>
			<point x="129" y="389" type="move"/>
			<point x="100" y="389" type="line"/>
			<point x="100" y="110" type="line"/>
			<point x="72" y="110" type="line"/>
			<point x="72" y="388" type="line"/>
			<point x="44" y="388" type="line"/>
			<point x="44" y="107" type="line"/>
		</contour>
		<contour>
			<point x="129" y="378" type="move"/>
			<point x="129" y="467"/>
			<point x="168" y="514"/>
			<point x="265" y="512" type="curve" smooth="yes"/>
			<point x="362" y="514"/>
			<point x="401" y="456"/>
			<point x="401" y="367" type="curve" smooth="yes"/>
			<point x="401" y="133" type="line" smooth="yes"/>
			<point x="401" y="44"/>
			<point x="362" y="-14"/>
			<point x="265" y="-12" type="curve" smooth="yes"/>
			<point x="168" y="-14"/>
			<point x="129" y="44"/>
			<point x="129" y="133" type="curve" smooth="yes"/>
			<point x="129" y="376" type="line"/>
		</contour>
	</outline>
</glyph>
<glyph name="e" format="2">
	<advance width="532"/>
	<unicode hex="0065"/>
	<outline>
		<contour>
			<point x="476" y="27" type="move"/>
			<point x="476" y="106" type="line"/>
			<point x="448" y="106" type="line"/>
			<point x="448" y="27" type="line"/>
			<point x="420" y="27" type="line"/>
			<point x="420" y="106" type="line"/>
			<point x="392" y="106" type="line"/>
			<point x="392" y="21" type="line"/>
			<point x="374" y="11"/>
			<point x="329" y="-13"/>
			<point x="265" y="-13" type="curve" smooth="yes"/>
			<point x="195" y="-13"/>
			<point x="132" y="27"/>
			<point x="132" y="152" type="curve"/>
			<point x="132" y="348" type="line" smooth="yes"/>
			<point x="132" y="473"/>
			<point x="195" y="513"/>
			<point x="265" y="513" type="curve" smooth="yes"/>
			<point x="369" y="513"/>
			<point x="392" y="455"/>
			<point x="392" y="373" type="curve" smooth="yes"/>
			<point x="392" y="279" type="line"/>
			<point x="420" y="279" type="line"/>
			<point x="420" y="390" type="line"/>
			<point x="448" y="390" type="line"/>
			<point x="448" y="279" type="line"/>
			<point x="476" y="279" type="line"/>
			<point x="476" y="390" type="line"/>
		</contour>
		<contour>
			<point x="134" y="110" type="move"/>
			<point x="109" y="110" type="line"/>
			<point x="109" y="390" type="line"/>
			<point x="81" y="390" type="line"/>
			<point x="81" y="109" type="line"/>
			<point x="53" y="109" type="line"/>
			<point x="53" y="390" type="line" smooth="yes"/>
		</contour>
		<contour>
			<point x="392" y="279" type="move"/>
			<point x="162" y="279" type="line"/>
		</contour>
	</outline>
</glyph>
<glyph name="f" format="2">
	<advance width="523"/>
	<unicode hex="0066"/>
	<outline>
		<contour>
			<point x="56" y="700" type="move"/>
			<point x="56" y="0" type="line"/>
			<point x="84" y="0" type="line"/>
			<point x="84" y="700" type="line"/>
			<point x="112" y="700" type="line"/>
			<point x="112" y="0" type="line"/>
			<point x="140" y="0" type="line"/>
			<point x="140" y="699" type="line"/>
			<point x="169" y="734"/>
			<point x="205" y="780"/>
			<point x="278" y="780" type="curve" smooth="yes"/>
			<point x="360" y="780"/>
			<point x="399" y="720"/>
			<point x="399" y="631" type="curve" smooth="yes"/>
			<point x="399" y="568" type="line"/>
			<point x="427" y="568" type="line"/>
			<point x="427" y="624"/>
			<point x="427" y="683"/>
			<point x="427" y="700" type="curve"/>
			<point x="455" y="700" type="line"/>
			<point x="455" y="569" type="line"/>
			<point x="483" y="569" type="line"/>
			<point x="483" y="703" type="line"/>
		</contour>
		<contour>
			<point x="319" y="500" type="move"/>
			<point x="141" y="500" type="line"/>
		</contour>
	</outline>
</glyph>
<glyph name="g" format="2">
	<advance width="600"/>
	<unicode hex="0067"/>
	<outline>
		<contour>
			<point x="59" y="456" type="move"/>
			<point x="59" y="83" type="line"/>
			<point x="87" y="83" type="line"/>
			<point x="87" y="453" type="line"/>
			<point x="115" y="453" type="line"/>
			<point x="115" y="436"/>
			<point x="115" y="230"/>
			<point x="115" y="82" type="curve"/>
			<point x="143" y="82" type="line"/>
			<point x="143" y="346" type="line" smooth="yes"/>
			<point x="143" y="428"/>
			<point x="180" y="514"/>
			<point x="293" y="514" type="curve" smooth="yes"/>
			<point x="349" y="514"/>
			<point x="403" y="483"/>
			<point x="431" y="439" type="curve"/>
			<point x="431" y="-131" type="line"/>
			<point x="459" y="-131" type="line"/>
			<point x="459" y="456" type="line"/>
			<point x="487" y="456" type="line"/>
			<point x="487" y="-131" type="line"/>
		</contour>
		<contour>
			<point x="59" y="-174" type="move"/>
			<point x="59" y="-95" type="line"/>
			<point x="87" y="-95" type="line"/>
			<point x="87" y="-174" type="line"/>
			<point x="115" y="-174" type="line"/>
			<point x="115" y="-95" type="line"/>
			<point x="143" y="-95" type="line"/>
			<point x="143" y="-174" type="line"/>
			<point x="182" y="-205"/>
			<point x="225" y="-219"/>
			<point x="272" y="-219" type="curve" smooth="yes"/>
			<point x="342" y="-219"/>
			<point x="403" y="-179"/>
			<point x="403" y="-54" type="curve" smooth="yes"/>
			<point x="403" y="-7"/>
			<point x="403" y="24"/>
			<point x="403" y="83" type="curve"/>
			<point x="349" y="-16"/>
			<point x="211" y="0"/>
			<point x="168" y="83" type="curve"/>
		</contour>
	</outline>
</glyph>
<glyph name="h" format="2">
	<advance width="563"/>
	<unicode hex="0068"/>
	<outline>
		<contour>
			<point x="58" y="760" type="move"/>
			<point x="58" y="0" type="line"/>
			<point x="86" y="0" type="line"/>
			<point x="86" y="760" type="line"/>
			<point x="114" y="760" type="line"/>
			<point x="114" y="0" type="line"/>
			<point x="142" y="0" type="line"/>
			<point x="142" y="432" type="line"/>
			<point x="176" y="471"/>
			<point x="226" y="520"/>
			<point x="308" y="518" type="curve"/>
			<point x="391" y="520"/>
			<point x="430" y="462"/>
			<point x="430" y="373" type="curve" smooth="yes"/>
			<point x="430" y="0" type="line"/>
			<point x="458" y="0" type="line"/>
			<point x="458" y="146"/>
			<point x="458" y="425"/>
			<point x="458" y="442" type="curve"/>
			<point x="486" y="442" type="line"/>
			<point x="486" y="1" type="line"/>
			<point x="514" y="1" type="line"/>
			<point x="514" y="445" type="line"/>
		</contour>
	</outline>
</glyph>
<glyph name="i" format="2">
	<advance width="194"/>
	<unicode hex="0069"/>
	<outline>
		<contour>
			<point x="55" y="500" type="move"/>
			<point x="55" y="0" type="line"/>
			<point x="83" y="0" type="line"/>
			<point x="83" y="500" type="line"/>
			<point x="111" y="500" type="line"/>
			<point x="111" y="0" type="line"/>
			<point x="139" y="0" type="line"/>
			<point x="139" y="500" type="line"/>
		</contour>
		<contour>
			<point x="55" y="760" type="move"/>
			<point x="55" y="655" type="line"/>
			<point x="83" y="655" type="line"/>
			<point x="83" y="760" type="line"/>
			<point x="111" y="760" type="line"/>
			<point x="111" y="655" type="line"/>
			<point x="139" y="655" type="line"/>
			<point x="139" y="760" type="line"/>
		</contour>
		<contour>
			<point x="1455" y="500" type="move"/>
			<point x="1455" y="0" type="line"/>
			<point x="1483" y="0" type="line"/>
			<point x="1483" y="500" type="line"/>
			<point x="1511" y="500" type="line"/>
			<point x="1511" y="0" type="line"/>
			<point x="1539" y="0" type="line"/>
			<point x="1539" y="432" type="line"/>
			<point x="1573" y="471"/>
			<point x="1623" y="520"/>
			<point x="1705" y="518" type="curve"/>
			<point x="1788" y="520"/>
			<point x="1827" y="462"/>
			<point x="1827" y="373" type="curve" smooth="yes"/>
			<point x="1827" y="0" type="line"/>
			<point x="1855" y="0" type="line"/>
			<point x="1855" y="146"/>
			<point x="1855" y="425"/>
			<point x="1855" y="442" type="curve"/>
			<point x="1883" y="442" type="line"/>
			<point x="1883" y="1" type="line"/>
			<point x="1911" y="1" type="line"/>
			<point x="1911" y="445" type="line"/>
		</contour>
	</outline>
</glyph>
<glyph name="j" format="2">
	<advance width="236"/>
	<unicode hex="006A"/>
	<outline>
		<contour>
			<point x="181" y="-138" type="move"/>
			<point x="181" y="500" type="line"/>
			<point x="153" y="500" type="line"/>
			<point x="153" y="-138" type="line"/>
			<point x="125" y="-138" type="line"/>
			<point x="125" y="500" type="line"/>
			<point x="97" y="500" type="line"/>
			<point x="97" y="-76" type="line"/>
			<point x="97" y="-181"/>
			<point x="73" y="-218"/>
			<point x="-35" y="-218" type="curve"/>
		</contour>
		<contour>
			<point x="96" y="760" type="move"/>
			<point x="96" y="655" type="line"/>
			<point x="124" y="655" type="line"/>
			<point x="124" y="760" type="line"/>
			<point x="152" y="760" type="line"/>
			<point x="152" y="655" type="line"/>
			<point x="180" y="655" type="line"/>
			<point x="180" y="760" type="line"/>
		</contour>
	</outline>
</glyph>
<glyph name="k" format="2">
	<advance width="467"/>
	<unicode hex="006B"/>
	<outline>
		<contour>
			<point x="58" y="760" type="move"/>
			<point x="58" y="0" type="line"/>
			<point x="86" y="0" type="line"/>
			<point x="86" y="760" type="line"/>
			<point x="114" y="760" type="line"/>
			<point x="114" y="0" type="line"/>
			<point x="142" y="0" type="line"/>
			<point x="142" y="266" type="line"/>
			<point x="376" y="514" type="line"/>
			<point x="397" y="492" type="line"/>
			<point x="319" y="405" type="line"/>
		</contour>
		<contour>
			<point x="386" y="-15" type="move"/>
			<point x="190" y="263" type="line"/>
			<point x="214" y="287" type="line"/>
			<point x="414" y="1" type="line"/>
			<point x="438" y="21" type="line"/>
			<point x="238" y="306" type="line"/>
			<point x="260" y="326" type="line"/>
			<point x="325" y="236" type="line"/>
		</contour>
	</outline>
</glyph>
<glyph name="l" format="2">
	<advance width="200"/>
	<unicode hex="006C"/>
	<outline>
		<contour>
			<point x="58" y="760" type="move"/>
			<point x="58" y="0" type="line"/>
			<point x="86" y="0" type="line"/>
			<point x="86" y="760" type="line"/>
			<point x="114" y="760" type="line"/>
			<point x="114" y="0" type="line"/>
			<point x="142" y="0" type="line"/>
			<point x="142" y="760" type="line"/>
		</contour>
	</outline>
</glyph>
<glyph name="n" format="2">
	<advance width="567"/>
	<unicode hex="006E"/>
	<anchor x="301" y="518" name="top"/>
	<anchor x="280" y="0" name="bottom"/>
	<outline>
		<contour>
			<point x="57" y="500" type="move"/>
			<point x="57" y="0" type="line"/>
			<point x="85" y="0" type="line"/>
			<point x="85" y="500" type="line"/>
			<point x="113" y="500" type="line"/>
			<point x="113" y="0" type="line"/>
			<point x="141" y="0" type="line"/>
			<point x="141" y="432" type="line"/>
			<point x="175" y="471"/>
			<point x="225" y="520"/>
			<point x="307" y="518" type="curve"/>
			<point x="390" y="520"/>
			<point x="429" y="462"/>
			<point x="429" y="373" type="curve" smooth="yes"/>
			<point x="429" y="0" type="line"/>
			<point x="457" y="0" type="line"/>
			<point x="457" y="146"/>
			<point x="457" y="425"/>
			<point x="457" y="442" type="curve"/>
			<point x="485" y="442" type="line"/>
			<point x="485" y="1" type="line"/>
			<point x="513" y="1" type="line"/>
			<point x="513" y="445" type="line"/>
		</contour>
	</outline>
</glyph>
<glyph name="p" format="2">
	<advance width="539"/>
	<unicode hex="0070"/>
	<outline>
		<contour>
			<point x="54" y="-200" type="move"/>
			<point x="54" y="389" type="line"/>
			<point x="82" y="389" type="line"/>
			<point x="82" y="-200" type="line"/>
			<point x="110" y="-200" type="line"/>
			<point x="110" y="390" type="line"/>
			<point x="138" y="390" type="line"/>
		</contour>
		<contour>
			<point x="494" y="394" type="move"/>
			<point x="494" y="113" type="line"/>
			<point x="466" y="113" type="line"/>
			<point x="466" y="391" type="line"/>
			<point x="438" y="391" type="line"/>
			<point x="438" y="112" type="line"/>
			<point x="410" y="112" type="line"/>
		</contour>
		<contour>
			<point x="137" y="367" type="move"/>
			<point x="137" y="456"/>
			<point x="176" y="514"/>
			<point x="273" y="512" type="curve" smooth="yes"/>
			<point x="370" y="514"/>
			<point x="409" y="456"/>
			<point x="409" y="367" type="curve" smooth="yes"/>
			<point x="409" y="133" type="line" smooth="yes"/>
			<point x="409" y="44"/>
			<point x="370" y="-14"/>
			<point x="273" y="-12" type="curve" smooth="yes"/>
			<point x="176" y="-14"/>
			<point x="137" y="44"/>
			<point x="137" y="133" type="curve" smooth="yes"/>
			<point x="137" y="366" type="line"/>
		</contour>
	</outline>
</glyph>
<glyph name="q" format="2">
	<advance width="539"/>
	<unicode hex="0071"/>
	<outline>
		<contour>
			<point x="485" y="-200" type="move"/>
			<point x="485" y="389" type="line"/>
			<point x="457" y="389" type="line"/>
			<point x="457" y="-200" type="line"/>
			<point x="429" y="-200" type="line"/>
			<point x="429" y="390" type="line"/>
			<point x="401" y="390" type="line"/>
		</contour>
		<contour>
			<point x="45" y="394" type="move"/>
			<point x="45" y="113" type="line"/>
			<point x="73" y="113" type="line"/>
			<point x="73" y="391" type="line"/>
			<point x="101" y="391" type="line"/>
			<point x="101" y="112" type="line"/>
			<point x="129" y="112" type="line"/>
		</contour>
		<contour>
			<point x="128" y="367" type="move"/>
			<point x="128" y="456"/>
			<point x="167" y="514"/>
			<point x="264" y="512" type="curve" smooth="yes"/>
			<point x="361" y="514"/>
			<point x="400" y="456"/>
			<point x="400" y="367" type="curve" smooth="yes"/>
			<point x="400" y="133" type="line" smooth="yes"/>
			<point x="400" y="44"/>
			<point x="361" y="-14"/>
			<point x="264" y="-12" type="curve" smooth="yes"/>
			<point x="167" y="-14"/>
			<point x="128" y="44"/>
			<point x="128" y="133" type="curve" smooth="yes"/>
			<point x="128" y="366" type="line"/>
		</contour>
	</outline>
</glyph>
<glyph name="s" format="2">
	<advance width="528"/>
	<unicode hex="0073"/>
	<outline>
		<contour>
			<point x="132" y="339" type="move"/>
			<point x="401" y="222" type="line"/>
			<point x="390" y="197" type="line"/>
			<point x="117" y="316" type="line"/>
			<point x="108" y="292" type="line"/>
			<point x="368" y="177" type="line"/>
			<point x="413" y="157"/>
			<point x="429" y="125"/>
			<point x="429" y="85" type="curve"/>
			<point x="429" y="12"/>
			<point x="369" y="-18"/>
			<point x="290" y="-18" type="curve"/>
			<point x="152" y="-18"/>
			<point x="134" y="55"/>
			<point x="134" y="137" type="curve"/>
			<point x="134" y="147" type="line"/>
			<point x="106" y="147" type="line"/>
			<point x="106" y="70"/>
			<point x="106" y="60"/>
			<point x="106" y="43" type="curve"/>
			<point x="78" y="43" type="line"/>
			<point x="78" y="146" type="line"/>
			<point x="50" y="146" type="line"/>
			<point x="50" y="40" type="line"/>
		</contour>
		<contour>
			<point x="368" y="270" type="move"/>
			<point x="152" y="362"/>
			<point x="126" y="386"/>
			<point x="126" y="435" type="curve"/>
			<point x="126" y="485"/>
			<point x="169" y="518"/>
			<point x="246" y="518" type="curve"/>
			<point x="351" y="518"/>
			<point x="394" y="467"/>
			<point x="394" y="396" type="curve"/>
			<point x="394" y="364" type="line"/>
			<point x="422" y="364" type="line"/>
			<point x="422" y="453" type="line"/>
			<point x="450" y="453" type="line"/>
			<point x="450" y="364" type="line"/>
			<point x="478" y="364" type="line"/>
			<point x="478" y="453" type="line"/>
		</contour>
	</outline>
</glyph>
<glyph name="t" format="2">
	<advance width="443"/>
	<unicode hex="0074"/>
	<outline>
		<contour>
			<point x="443" y="59" type="move"/>
			<point x="443" y="163" type="line"/>
			<point x="415" y="163" type="line"/>
			<point x="415" y="62" type="line"/>
			<point x="387" y="62" type="line"/>
			<point x="387" y="79"/>
			<point x="387" y="108"/>
			<point x="387" y="164" type="curve"/>
			<point x="359" y="164" type="line"/>
			<point x="359" y="131" type="line" smooth="yes"/>
			<point x="359" y="42"/>
			<point x="330" y="-18"/>
			<point x="248" y="-18" type="curve" smooth="yes"/>
			<point x="186" y="-18"/>
			<point x="153" y="26"/>
			<point x="140" y="63" type="curve"/>
			<point x="140" y="672" type="line"/>
			<point x="112" y="672" type="line"/>
			<point x="112" y="62" type="line"/>
			<point x="84" y="62" type="line"/>
			<point x="84" y="672" type="line"/>
			<point x="56" y="672" type="line"/>
			<point x="56" y="62" type="line"/>
		</contour>
		<contour>
			<point x="319" y="482" type="move"/>
			<point x="141" y="482" type="line"/>
		</contour>
	</outline>
</glyph>
<glyph name="u" format="2">
	<advance width="567"/>
	<unicode hex="0075"/>
	<outline>
		<contour>
			<point x="510" y="0" type="move"/>
			<point x="510" y="500" type="line"/>
			<point x="482" y="500" type="line"/>
			<point x="482" y="0" type="line"/>
			<point x="454" y="0" type="line"/>
			<point x="454" y="500" type="line"/>
			<point x="426" y="500" type="line"/>
			<point x="426" y="68" type="line"/>
			<point x="392" y="29"/>
			<point x="342" y="-20"/>
			<point x="260" y="-18" type="curve"/>
			<point x="177" y="-20"/>
			<point x="138" y="38"/>
			<point x="138" y="127" type="curve" smooth="yes"/>
			<point x="138" y="500" type="line"/>
			<point x="110" y="500" type="line"/>
			<point x="110" y="354"/>
			<point x="110" y="75"/>
			<point x="110" y="58" type="curve"/>
			<point x="82" y="58" type="line"/>
			<point x="82" y="499" type="line"/>
			<point x="54" y="499" type="line"/>
			<point x="54" y="55" type="line"/>
		</contour>
	</outline>
</glyph>
<glyph name="v" format="2">
	<advance width="552"/>
	<unicode hex="0076"/>
	<outline>
		<contour>
			<point x="197" y="73" type="move"/>
			<point x="44" y="478" type="line"/>
			<point x="69" y="489" type="line"/>
			<point x="264" y="-22" type="line"/>
			<point x="289" y="-11" type="line"/>
			<point x="94" y="499" type="line"/>
			<point x="119" y="510" type="line"/>
			<point x="314" y="0" type="line"/>
			<point x="481" y="509" type="line"/>
			<point x="507" y="500" type="line"/>
			<point x="479" y="407" type="line"/>
		</contour>
	</outline>
</glyph>
<glyph name="w" format="2">
	<advance width="852"/>
	<unicode hex="0077"/>
	<outline>
		<contour>
			<point x="173" y="73" type="move"/>
			<point x="44" y="476" type="line"/>
			<point x="70" y="486" type="line"/>
			<point x="230" y="-17" type="line"/>
			<point x="255" y="-8" type="line"/>
			<point x="94" y="497" type="line"/>
			<point x="120" y="507" type="line"/>
			<point x="280" y="5" type="line"/>
			<point x="408" y="398" type="line"/>
		</contour>
		<contour>
			<point x="512" y="73" type="move"/>
			<point x="384" y="475" type="line"/>
			<point x="409" y="486" type="line"/>
			<point x="569" y="-16" type="line"/>
			<point x="595" y="-7" type="line"/>
			<point x="434" y="496" type="line"/>
			<point x="459" y="507" type="line"/>
			<point x="620" y="5" type="line"/>
			<point x="781" y="505" type="line"/>
			<point x="807" y="496" type="line"/>
			<point x="781" y="410" type="line"/>
		</contour>
	</outline>
</glyph>
<glyph name="y" format="2">
	<advance width="482"/>
	<unicode hex="0079"/>
	<outline>
		<contour>
			<point x="177" y="50" type="move"/>
			<point x="8" y="478" type="line"/>
			<point x="33" y="489" type="line"/>
			<point x="203" y="62" type="line"/>
			<point x="228" y="73" type="line"/>
			<point x="58" y="499" type="line"/>
			<point x="83" y="510" type="line"/>
			<point x="269" y="41" type="line"/>
		</contour>
		<contour>
			<point x="129" y="-99" type="move"/>
			<point x="94" y="-186" type="line"/>
			<point x="120" y="-196" type="line"/>
			<point x="155" y="-111" type="line"/>
			<point x="180" y="-122" type="line"/>
			<point x="174" y="-138"/>
			<point x="166" y="-153"/>
			<point x="147" y="-206" type="curve"/>
			<point x="173" y="-217" type="line"/>
			<point x="448" y="509" type="line"/>
			<point x="474" y="500" type="line"/>
			<point x="446" y="407" type="line"/>
		</contour>
	</outline>
</glyph>
<glyph name="z" format="2">
	<advance width="530"/>
	<unicode hex="007A"/>
	<outline>
		<contour>
			<point x="94" y="500" type="move"/>
			<point x="94" y="423" type="line"/>
			<point x="122" y="423" type="line"/>
			<point x="122" y="500" type="line"/>
			<point x="150" y="500" type="line"/>
			<point x="150" y="423" type="line"/>
			<point x="178" y="423" type="line"/>
			<point x="178" y="500" type="line"/>
			<point x="414" y="500" type="line"/>
			<point x="55" y="39" type="line"/>
			<point x="80" y="20" type="line"/>
			<point x="440" y="483" type="line"/>
			<point x="464" y="465" type="line"/>
			<point x="107" y="5" type="line"/>
			<point x="131" y="-14" type="line"/>
			<point x="192" y="64" type="line"/>
			<point x="391" y="0" type="line"/>
			<point x="391" y="81" type="line"/>
			<point x="419" y="81" type="line"/>
			<point x="419" y="0" type="line"/>
			<point x="447" y="0" type="line"/>
			<point x="447" y="81" type="line"/>
			<point x="475" y="81" type="line"/>
			<point x="475" y="0" type="line"/>
		</contour>
	</outline>
</glyph>
<glyph name="c_h" format="2">
	<advance width="1063"/>
	<anchor x="179" y="518" name="top_1"/>
	<anchor x="155" y="-18" name="bottom_1"/>
	<outline>
		<contour>
			<point x="46" y="440" type="move"/>
			<point x="46" y="84" type="line"/>
			<point x="74" y="84" type="line"/>
			<point x="74" y="440" type="line"/>
			<point x="102" y="440" type="line"/>
			<point x="102" y="147" type="line" smooth="yes"/>
			<point x="102" y="50"/>
			<point x="153" y="-18"/>
			<point x="248" y="-18" type="curve" smooth="yes"/>
			<point x="352" y="-18"/>
			<point x="390" y="45"/>
			<point x="390" y="127" type="curve" smooth="yes"/>
			<point x="390" y="137" type="line"/>
			<point x="418" y="137" type="line"/>
			<point x="418" y="60"/>
			<point x="418" y="60"/>
			<point x="418" y="43" type="curve"/>
			<point x="446" y="43" type="line"/>
			<point x="446" y="136" type="line"/>
			<point x="474" y="136" type="line"/>
			<point x="474" y="40" type="line"/>
		</contour>
		<contour>
			<point x="130" y="137" type="move"/>
			<point x="130" y="196"/>
			<point x="130" y="306"/>
			<point x="130" y="353" type="curve" smooth="yes"/>
			<point x="130" y="478"/>
			<point x="202" y="518"/>
			<point x="272" y="518" type="curve" smooth="yes"/>
			<point x="336" y="518"/>
			<point x="390" y="484"/>
			<point x="390" y="376" type="curve" smooth="yes"/>
			<point x="390" y="344" type="line"/>
			<point x="418" y="344" type="line"/>
			<point x="418" y="443" type="line"/>
			<point x="446" y="443" type="line"/>
			<point x="446" y="344" type="line"/>
			<point x="474" y="344" type="line"/>
			<point x="474" y="443" type="line"/>
			<point x="474" y="760" type="line"/>
			<point x="502" y="760" type="line"/>
			<point x="502" y="344" type="line"/>
			<point x="530" y="344" type="line"/>
			<point x="530" y="760" type="line"/>
			<point x="558" y="760" type="line"/>
			<point x="558" y="0" type="line"/>
			<point x="586" y="0" type="line"/>
			<point x="586" y="760" type="line"/>
			<point x="614" y="760" type="line"/>
			<point x="614" y="0" type="line"/>
			<point x="642" y="0" type="line"/>
			<point x="642" y="432" type="line"/>
			<point x="676" y="471"/>
			<point x="726" y="520"/>
			<point x="808" y="518" type="curve"/>
			<point x="891" y="520"/>
			<point x="930" y="462"/>
			<point x="930" y="373" type="curve" smooth="yes"/>
			<point x="930" y="0" type="line"/>
			<point x="958" y="0" type="line"/>
			<point x="958" y="146"/>
			<point x="958" y="425"/>
			<point x="958" y="442" type="curve"/>
			<point x="986" y="442" type="line"/>
			<point x="986" y="1" type="line"/>
			<point x="1014" y="1" type="line"/>
			<point x="1014" y="445" type="line"/>
		</contour>
	</outline>
</glyph>
